<svg width="495" height="250" viewBox="0 0 495 250" fill="none" xmlns="http://www.w3.org/2000/svg">
<path opacity="0.4" d="M161.418 36.8876C161.154 36.9031 160.89 36.9186 160.641 36.9341L161.309 36.5149C161.356 36.6391 161.387 36.7633 161.418 36.8876Z" fill="white"/>
<path d="M161.055 41.5337L160.993 41.658L160.884 41.9688L147.769 73.6364C147.629 73.9627 147.474 74.2891 147.319 74.6154C147.257 74.7708 147.163 74.9261 147.086 75.0971C147.008 75.2524 146.93 75.4078 146.852 75.5477C146.728 75.7808 146.604 75.9983 146.48 76.2314C146.433 76.3091 146.402 76.3868 146.355 76.4489C146.184 76.7286 146.013 77.0083 145.842 77.2725C145.842 77.288 145.827 77.3035 145.827 77.3035C143.372 81.0794 139.86 84.0162 135.618 85.7721L135.54 85.8031L116.66 93.6967L115.728 94.0852L101.106 100.223L95.3878 114.239L93.6785 118.45L87.3231 134.066C85.5672 138.308 82.6304 141.82 78.87 144.275C78.8544 144.275 78.8389 144.29 78.8233 144.29C78.5592 144.477 78.2795 144.648 77.9998 144.803C77.9221 144.85 77.8444 144.896 77.7667 144.943C77.5492 145.067 77.3316 145.192 77.0985 145.316C76.9431 145.394 76.7878 145.471 76.6324 145.549C76.4614 145.627 76.3216 145.704 76.1507 145.782C75.8399 145.937 75.498 146.077 75.1717 146.217L48.4915 157.265L43.3015 159.409L43.084 159.503C41.0173 160.357 38.6709 160.248 36.6819 159.192L33.916 157.731L33.4499 157.483L3.98818 141.866C2.04582 140.841 1.09795 138.572 1.75058 136.459L10.4834 108.039L11.711 104.045L12.2859 102.165C12.9541 99.9743 12.9541 97.628 12.2859 95.4215L11.6955 93.4947L10.4213 89.377L1.75058 61.1279C1.11349 59.0146 2.04582 56.746 3.98818 55.7205L30.9792 41.4094L33.885 39.8711L35.703 38.9077C37.7386 37.8356 39.4012 36.1574 40.4734 34.1218L41.3902 32.4126L42.2449 30.7966L57.2709 2.43867C58.2965 0.496345 60.5652 -0.43597 62.6785 0.201112L95.0148 10.1303L95.1081 10.1613L96.9727 10.7363C99.1637 11.4044 101.51 11.4044 103.717 10.7363L105.675 10.1458L109.046 9.10472L138.011 0.21665C140.109 -0.43597 142.393 0.511883 143.418 2.45421L156.611 27.3315L159.299 32.397L160.744 35.1318C161.801 37.1208 161.91 39.4671 161.055 41.5337Z" fill="url(#paint0_linear_101_281)"/>
<path d="M160.744 35.1318L159.299 32.397L156.611 27.3315L143.418 2.45421C142.393 0.511883 140.109 -0.43597 138.011 0.21665L109.046 9.10472L105.675 10.1458L103.717 10.7363C101.51 11.4044 99.1637 11.4044 96.9727 10.7363L95.1081 10.1613L95.0148 10.1303L62.6785 0.201112C60.5652 -0.43597 58.2965 0.496345 57.2709 2.43867L42.2449 30.7966L41.3902 32.4126L40.4734 34.1218C39.4012 36.1574 37.7386 37.8356 35.703 38.9077L33.885 39.8711L30.9792 41.4094L3.98818 55.7205C2.04582 56.746 1.11349 59.0146 1.75058 61.1279L10.4213 89.377L11.6955 93.4947L12.2859 95.4215C12.9541 97.628 12.9541 99.9743 12.2859 102.165L11.711 104.045L10.4834 108.039L1.75058 136.459C1.09795 138.572 2.04582 140.841 3.98818 141.866L33.4499 157.483L33.916 157.731L36.6819 159.192C38.6709 160.248 41.0173 160.357 43.084 159.503L43.3015 159.409L48.4915 157.265L75.1717 146.217C75.498 146.077 75.8399 145.937 76.1507 145.782C76.3216 145.704 76.4614 145.627 76.6324 145.549C76.7878 145.471 76.9431 145.394 77.0985 145.316C77.3316 145.192 77.5492 145.067 77.7667 144.943C77.8444 144.896 77.9221 144.85 77.9998 144.803C78.2795 144.648 78.5592 144.477 78.8233 144.29C78.8389 144.29 78.8544 144.275 78.87 144.275C82.6304 141.82 85.5672 138.308 87.3231 134.066L93.6785 118.45L95.3878 114.239L101.106 100.223L115.728 94.0852L116.66 93.6967L135.54 85.8031L135.618 85.7721C139.86 84.0162 143.372 81.0794 145.827 77.3035C145.827 77.3035 145.842 77.288 145.842 77.2725C146.013 77.0083 146.184 76.7286 146.355 76.4489C146.402 76.3868 146.433 76.3091 146.48 76.2314C146.604 75.9983 146.728 75.7808 146.852 75.5477C146.93 75.4078 147.008 75.2524 147.086 75.0971C147.163 74.9261 147.257 74.7708 147.319 74.6154C147.474 74.2891 147.629 73.9627 147.769 73.6364L160.884 41.9688L160.993 41.658L161.055 41.5337C161.91 39.4671 161.801 37.1208 160.744 35.1318ZM104.074 15.0715C104.571 14.0304 105.441 13.2691 106.529 12.9427L138.866 3.01359C139.642 2.76498 140.466 3.10683 140.839 3.8216L156.673 33.7023C157.217 34.7123 157.295 35.8777 156.906 36.9499C156.518 38.022 155.725 38.8611 154.669 39.2962L121.26 53.1255C119.924 53.6849 118.385 53.0478 117.826 51.696L115.992 47.2675C115.961 47.1898 115.946 47.1276 115.915 47.0655L103.981 18.2725C103.561 17.2159 103.592 16.0815 104.074 15.0715ZM101.277 19.3913C101.277 19.3913 101.293 19.4223 101.293 19.4379L113.273 48.3707C115.262 53.2654 115.278 58.6417 113.351 63.5519L101.122 93.0597C100.904 93.4947 100.516 93.5414 100.345 93.5414C100.174 93.5414 99.7387 93.4947 99.5211 92.9975L87.4785 63.9093C87.4785 63.9093 87.4319 63.8005 87.4008 63.7539C85.3652 58.7194 85.3963 53.2032 87.463 48.1842L89.1878 44.051L99.3968 19.3913C99.7542 18.5522 100.935 18.5522 101.277 19.3913ZM44.0008 33.7023L59.8504 3.8216C60.1456 3.26221 60.7206 2.9359 61.3266 2.9359C61.482 2.9359 61.6529 2.95144 61.8083 2.99806L94.1602 12.9272C95.2479 13.2691 96.1181 14.0304 96.6153 15.056C97.0971 16.0971 97.1281 17.2469 96.693 18.3036L84.7747 47.0655L82.8479 51.7115C82.2885 53.0478 80.7502 53.6849 79.3983 53.1255L74.892 51.2609C74.892 51.2609 74.8143 51.2298 74.7832 51.2143L46.0208 39.2962C44.9642 38.8611 44.1717 38.022 43.7832 36.9499C43.3947 35.8622 43.4724 34.7123 44.0008 33.7023ZM44.8709 41.9844H44.902L73.7732 53.9646C78.7457 56.0623 82.6148 59.9159 84.7126 64.8727C84.7281 64.9348 84.7437 64.9814 84.7747 65.0281L96.8174 94.1163H96.8329C97.0194 94.6135 96.7552 94.9554 96.6309 95.0797C96.5066 95.204 96.1647 95.4681 95.6675 95.2817L66.5787 83.2237C66.5166 83.1927 66.4544 83.1771 66.3923 83.1616C61.4198 81.0328 57.5351 77.1171 55.4529 72.1137L43.5346 43.3207C43.1927 42.4816 44.0318 41.6425 44.8709 41.9844ZM95.0925 98.7934C95.0925 98.9643 95.0304 99.3994 94.5487 99.6014L65.4599 111.659C65.4599 111.659 65.3512 111.706 65.289 111.737C60.2699 113.757 54.7536 113.742 49.7346 111.675L20.9722 99.7413H20.9411C20.102 99.3839 20.102 98.2029 20.9411 97.8455C20.9566 97.8455 20.9722 97.8455 20.9722 97.83L49.9211 85.8498C54.8935 83.8453 60.3321 83.8608 65.289 85.8653C65.3356 85.8808 65.3978 85.9119 65.4599 85.943L94.5487 97.9698C95.0304 98.1874 95.0925 98.6225 95.0925 98.7934ZM4.54758 60.2577C4.31449 59.4963 4.65635 58.6728 5.37114 58.2999L35.2524 42.4505C35.8428 42.1397 36.4799 41.9844 37.1326 41.9844C37.5832 41.9844 38.0494 42.062 38.5 42.233C39.5722 42.6214 40.4113 43.4139 40.8464 44.4705L54.676 77.8629C55.2198 79.2148 54.5827 80.7531 53.2464 81.3125L48.8023 83.146C48.8023 83.146 48.678 83.1927 48.6158 83.2237L19.8067 95.1574C18.7656 95.5769 17.6313 95.5303 16.6057 95.0641C15.5646 94.5669 14.8188 93.6967 14.4769 92.609L4.54758 60.2577ZM40.8308 153.132C40.3957 154.173 39.5722 154.965 38.4845 155.354C37.4123 155.742 36.2624 155.665 35.2524 155.121L5.3556 139.287C4.65635 138.914 4.31449 138.075 4.54758 137.314L14.4769 104.978C14.8188 103.89 15.5646 103.02 16.6057 102.523C17.1496 102.274 17.7401 102.134 18.315 102.134C18.8278 102.134 19.3561 102.243 19.8534 102.445L48.6158 114.363L53.2464 116.29C54.5827 116.849 55.2354 118.388 54.676 119.739L52.8113 124.23C52.8113 124.23 52.7647 124.308 52.7491 124.354L40.8308 153.132ZM92.684 113.136L90.9747 117.331C90.9747 117.331 90.9592 117.362 90.9592 117.378L84.6193 132.947C84.6193 132.947 84.6193 132.978 84.6193 132.994C83.5627 135.511 82.0399 137.718 80.1442 139.536C80.1442 139.551 80.1286 139.567 80.1131 139.567C79.2274 140.421 78.2795 141.167 77.2695 141.82C77.0208 141.991 76.7722 142.146 76.5236 142.286C76.477 142.317 76.4148 142.348 76.3682 142.379C76.1662 142.503 75.9487 142.612 75.7467 142.737C75.6223 142.783 75.5136 142.845 75.3893 142.907C75.2339 142.985 75.0785 143.063 74.9231 143.141C74.6434 143.265 74.3482 143.405 74.0685 143.513L44.8709 155.602C44.0318 155.944 43.1927 155.105 43.5501 154.266L43.5657 154.235L55.5306 125.349C57.6128 120.392 61.482 116.538 66.4233 114.441C66.4855 114.41 66.5321 114.394 66.5943 114.363L95.683 102.305L96.2735 102.072C96.662 101.901 97.0504 101.73 97.4234 101.528L92.6996 113.136H92.684ZM157.155 43.3207L145.066 72.5021C144.941 72.7974 144.817 73.077 144.677 73.3723C144.615 73.4966 144.553 73.6364 144.475 73.7763C144.413 73.9161 144.335 74.056 144.273 74.1803C144.164 74.3823 144.055 74.5687 143.947 74.7552C143.916 74.8329 143.869 74.8951 143.838 74.9728C143.698 75.2058 143.543 75.4389 143.403 75.672C143.387 75.6875 143.372 75.7031 143.372 75.7186C142.719 76.7131 141.973 77.6609 141.134 78.5311C141.134 78.5311 141.103 78.5622 141.103 78.5777C139.518 80.2248 137.653 81.5767 135.54 82.5867C135.198 82.7576 134.856 82.913 134.499 83.0684L115.417 91.0552L114.687 91.366L102.784 96.3383C103.111 95.81 103.375 95.2661 103.608 94.7067L103.825 94.2095C103.825 94.2095 103.856 94.1474 103.872 94.1163L115.915 65.0281C115.961 64.9193 116.008 64.795 116.054 64.6707V64.6396C118.059 59.8226 121.819 56.0623 126.636 54.0734L155.818 41.9844C156.658 41.6425 157.497 42.4816 157.155 43.3207Z" fill="white"/>
<path opacity="0.4" d="M4.51484 138.199L4.48376 138.603L4.63915 138.541C4.59254 138.432 4.54592 138.308 4.51484 138.199ZM161.302 36.5149L160.634 36.9344C160.882 36.9189 161.147 36.9034 161.411 36.8878C161.38 36.7635 161.349 36.6392 161.302 36.5149Z" fill="white"/>
<path opacity="0.4" d="M113.372 63.5414L101.143 93.0491C100.925 93.4842 100.537 93.5308 100.366 93.5308V18.7592V18.7437C100.754 18.7437 101.127 18.9612 101.298 19.3807C101.314 19.3963 101.314 19.4118 101.314 19.4273L113.294 48.3602C115.283 53.2548 115.299 58.6312 113.372 63.5414Z" fill="white"/>
<path opacity="0.4" d="M157.173 43.3054L145.084 72.4868C144.96 72.7821 144.836 73.0618 144.696 73.357C144.634 73.4813 144.571 73.6211 144.494 73.761C144.432 73.9008 144.354 74.0407 144.292 74.165C144.183 74.367 144.074 74.5535 143.965 74.7399C143.934 74.8176 143.888 74.8798 143.857 74.9575C143.717 75.1905 143.561 75.4236 143.422 75.6567C143.422 75.6722 143.39 75.6878 143.39 75.7033C142.738 76.6978 141.992 77.6456 141.153 78.5158C141.137 78.5313 141.122 78.5469 141.122 78.5624C139.537 80.2095 137.672 81.5614 135.559 82.5714C135.217 82.7423 134.875 82.8977 134.518 83.0531L115.436 91.0399L114.706 91.3507L102.803 96.323L156.894 42.1555C157.205 42.4197 157.36 42.8548 157.173 43.3054Z" fill="white"/>
<path opacity="0.4" d="M96.6517 95.0682L43.7418 42.2526C44.006 41.9418 44.4411 41.7864 44.8917 41.9729H44.9228L73.794 53.9531C78.7664 56.0509 82.6356 59.9044 84.7333 64.8612C84.7489 64.9234 84.7644 64.97 84.7955 65.0166L96.8381 94.1048H96.8537C97.0401 94.6021 96.776 94.9439 96.6517 95.0682Z" fill="white"/>
<path opacity="0.4" d="M95.1097 98.7776L20.3212 98.7931C20.3212 98.4047 20.5387 98.0162 20.9583 97.8297C20.9738 97.8297 20.9893 97.8297 20.9893 97.8142L49.9382 85.834C54.9107 83.8295 60.3493 83.845 65.3062 85.834C65.3528 85.8495 65.415 85.8806 65.4771 85.9117L94.5659 97.9385C95.0476 98.1561 95.1097 98.5911 95.1097 98.7621V98.7776Z" fill="white"/>
<path opacity="0.4" d="M97.4235 101.515L43.7678 155.372C43.4881 155.092 43.3637 154.673 43.5502 154.253L43.5658 154.222L55.5307 125.336C57.6129 120.379 61.4821 116.526 66.4234 114.428C66.4856 114.397 66.5322 114.381 66.5943 114.35L95.6831 102.292L96.2736 102.059C96.662 101.888 97.0505 101.717 97.4235 101.515Z" fill="white"/>
<path opacity="0.4" d="M38.4865 155.355C37.4143 155.744 36.2644 155.666 35.2544 155.122L5.35764 139.288C5.04686 139.117 4.79824 138.853 4.64285 138.542L4.48746 138.604L4.51854 138.201C4.45638 137.921 4.45638 137.61 4.54962 137.315L4.64285 137.035L14.4789 104.979C14.8208 103.891 15.5667 103.021 16.6078 102.524L27.5161 128.862L27.5627 128.971L38.4865 155.355Z" fill="white"/>
<path opacity="0.4" d="M96.6226 15.0583L70.2842 25.9819L43.7904 36.9522C43.402 35.8645 43.4797 34.7146 44.008 33.7046L59.8576 3.82393C60.0441 3.46654 60.3549 3.20239 60.7123 3.07808C60.9143 2.98485 61.1163 2.93823 61.3338 2.93823C61.4892 2.93823 61.6601 2.93823 61.8155 3.00039L94.1674 12.9295C95.2552 13.2714 96.1253 14.0328 96.6226 15.0583Z" fill="white"/>
<path opacity="0.4" d="M54.6432 117.66L27.559 128.973L4.63915 138.544L4.48376 138.606L4.51484 138.202L4.63915 137.037L14.4753 104.981C14.8171 103.893 15.563 103.023 16.6041 102.526C17.1479 102.277 17.7384 102.137 18.3134 102.137C18.8261 102.137 19.3545 102.246 19.8517 102.448L48.6141 114.366L53.2447 116.293C53.8974 116.557 54.3791 117.054 54.6432 117.66Z" fill="white"/>
<path opacity="0.4" d="M96.6189 15.0583C97.1006 16.0994 97.1317 17.2493 96.6966 18.3059L84.7783 47.0678L82.8515 51.7138C82.6029 52.3198 82.1522 52.786 81.5928 53.0502L70.2806 25.9819L60.7086 3.07808C60.9106 2.98485 61.1126 2.93823 61.3302 2.93823C61.4856 2.93823 61.6565 2.93823 61.8119 3.00039L94.1638 12.9295C95.2515 13.2714 96.1217 14.0328 96.6189 15.0583Z" fill="white"/>
<path opacity="0.4" d="M44.9039 75.9219L16.6076 95.0654C15.5665 94.5681 14.8206 93.698 14.4788 92.6103L4.54944 60.259C4.44067 59.9171 4.45621 59.5753 4.56498 59.249L4.72037 58.9226C4.87576 58.6585 5.0933 58.441 5.373 58.3011L35.2542 42.4518C35.8447 42.141 36.4818 41.9856 37.1344 41.9856C37.5851 41.9856 38.0512 42.0633 38.5019 42.2342L44.9039 75.9219Z" fill="white"/>
<path opacity="0.4" d="M156.676 33.7049C157.22 34.7149 157.297 35.8803 156.909 36.9525L123.361 43.3854H123.345L104.077 15.0741C104.574 14.0331 105.444 13.2717 106.532 12.9454L138.868 3.0162C139.35 2.86081 139.847 2.93851 140.251 3.18712C140.5 3.34251 140.702 3.56005 140.842 3.8242L156.676 33.7049Z" fill="white"/>
<path opacity="0.4" d="M156.676 33.7049C157.22 34.7149 157.297 35.8803 156.909 36.9525L123.361 43.3854H123.345L104.077 15.0741C104.574 14.0331 105.444 13.2717 106.532 12.9454L138.868 3.0162C139.35 2.86081 139.847 2.93851 140.251 3.18712C140.5 3.34251 140.702 3.56005 140.842 3.8242L156.676 33.7049Z" fill="#FAD9A1"/>
<path opacity="0.4" d="M54.6264 79.9308L44.8991 75.9219L4.56018 59.249L4.71557 58.9226C4.87096 58.6585 5.0885 58.441 5.3682 58.3011L35.2494 42.4518C35.8399 42.141 36.477 41.9856 37.1296 41.9856C37.5803 41.9856 38.0464 42.0633 38.4971 42.2342C39.5692 42.6227 40.4083 43.4151 40.8434 44.4718L54.673 77.8642C54.9527 78.5634 54.9216 79.3093 54.6264 79.9308Z" fill="white"/>
<path opacity="0.4" d="M156.902 36.9497C156.514 38.0218 155.721 38.8609 154.665 39.296L121.256 53.1253C120.588 53.405 119.873 53.3895 119.252 53.1253L123.338 43.3826H123.354L140.245 3.18433C140.493 3.33971 140.695 3.55725 140.835 3.82141L156.669 33.7021C157.213 34.7121 157.291 35.8775 156.902 36.9497Z" fill="#FFFACC" fill-opacity="0.79"/>
<path d="M160.663 35.543L143.337 2.86537C142.14 0.581197 139.483 -0.522043 137.012 0.239348L102.718 10.759C100.651 11.396 98.476 11.396 96.4405 10.759L62.1462 0.223809C61.6178 0.0684231 61.1051 0.00626972 60.5768 0.00626972C58.6189 0.00626972 56.7697 1.06289 55.8219 2.84983L39.0244 34.533C37.9988 36.4598 36.4604 38.0136 34.5802 39.0081L2.86542 55.8208C0.596749 57.0018 -0.506513 59.6589 0.239352 62.1295L10.7747 96.4231C11.3963 98.4898 11.3963 100.665 10.7747 102.716L0.239352 137.01C-0.522052 139.465 0.581211 142.122 2.86542 143.319L35.5592 160.644C37.7191 161.809 40.3451 161.934 42.6294 160.986L75.0745 147.561C75.2921 147.467 75.5096 147.359 75.6805 147.265L76.7061 146.768C76.8926 146.675 77.079 146.566 77.2966 146.442L77.7783 146.162C77.9181 146.084 78.0735 145.991 78.2134 145.898L78.5397 145.696C82.471 143.132 85.4856 139.481 87.2725 135.13L95.3372 115.334C95.5703 114.774 102.013 98.4524 101.78 97.893C101.546 97.3492 100.77 99.4532 100.226 99.2356C99.6818 98.987 98.4387 98.4369 97.8948 98.67C97.351 98.903 91.4214 113.08 91.2039 113.624L83.0304 133.685C82.0204 136.015 80.6064 138.051 78.8194 139.745L78.6174 139.947C77.856 140.661 77.0013 141.345 76.0535 141.951C75.8048 142.107 75.5873 142.262 75.3231 142.417L74.9036 142.65C74.8104 142.713 74.7327 142.744 74.655 142.79L74.4996 142.868C74.4996 142.868 74.3753 142.93 74.282 142.977L73.5983 143.303C73.4274 143.381 73.2565 143.458 73.07 143.536L43.2665 155.889L55.4645 126.428C57.4535 121.689 61.1828 117.96 65.9377 115.924L66.1086 115.862L95.8034 103.555C99.2841 102.11 102.112 99.2822 103.557 95.8016L116.019 65.7189C117.931 61.0884 121.536 57.4835 126.166 55.5567L155.892 43.2501L143.492 73.2085C143.399 73.4105 143.306 73.6125 143.212 73.799L142.979 74.2651C142.979 74.2651 142.933 74.3739 142.839 74.5604L142.529 75.0887L141.829 76.1453V76.2541L141.767 76.3473C141.208 77.1864 140.555 77.9944 139.825 78.7558L139.452 79.1442C137.991 80.5738 136.298 81.7703 134.417 82.6715C134.107 82.8269 133.765 82.9823 133.438 83.1221L101.78 96.3392C100.723 96.7743 99.946 98.1945 100.226 99.2356C100.474 100.246 99.2001 100.224 100.226 100.224C100.536 100.224 100.738 100.348 101.003 100.224L135.148 87.2554C139.468 85.4684 143.104 82.4695 145.652 78.6004L145.854 78.3829V78.2896L145.994 78.041C146.056 77.9322 146.134 77.8079 146.196 77.7147C146.258 77.637 146.305 77.5438 146.398 77.3728L146.849 76.5493C146.895 76.4405 146.957 76.3318 147.019 76.1919L147.408 75.3839C147.517 75.1664 147.625 74.9333 147.719 74.7157L161.004 42.6286C161.952 40.3133 161.828 37.7339 160.663 35.543ZM43.9191 34.8438L59.7687 4.96308C59.9552 4.65231 60.266 4.49692 60.7011 4.49692L60.8098 4.528L93.1462 14.4571C94.0164 14.7058 94.7312 15.3118 95.1352 16.1353C95.5237 16.9899 95.5547 17.9223 95.2129 18.7769L81.3678 52.1848C81.1813 52.6354 80.8239 52.9928 80.3577 53.1948C80.1246 53.2881 79.8916 53.3347 79.6429 53.3347C79.4099 53.3347 79.1612 53.2881 78.9281 53.1948L45.5507 39.3655C44.696 38.9926 44.0589 38.3244 43.7482 37.4698C43.4374 36.5841 43.4995 35.6518 43.9191 34.8438ZM4.52809 60.8087C4.40378 60.4047 4.57471 59.9852 4.96318 59.7676L34.8444 43.9027C35.6835 43.4677 36.6158 43.4211 37.4705 43.7474C38.3251 44.0426 39.0088 44.6797 39.3662 45.5498L53.1803 78.9267C53.5687 79.8901 53.1181 80.9778 52.1858 81.3818L18.7617 95.2111C18.3577 95.3665 17.9537 95.4442 17.5341 95.4442C17.0679 95.4442 16.6173 95.3354 16.1667 95.1334C15.3431 94.7294 14.7527 94.0457 14.4574 93.16L4.52809 60.8087ZM53.1958 120.213L39.3507 153.605C39.0088 154.46 38.3251 155.097 37.4394 155.392C37.082 155.532 36.7091 155.594 36.3361 155.594C35.8233 155.594 35.3106 155.47 34.8444 155.206L4.94763 139.387C4.57469 139.185 4.40378 138.719 4.52809 138.315L14.4574 105.979C14.7371 105.094 15.3276 104.41 16.1512 104.006C16.9903 103.617 17.8915 103.586 18.7772 103.928L52.1858 117.773C53.1336 118.177 53.5843 119.265 53.1958 120.213ZM64.4304 111.698L64.2905 111.76C61.8509 112.739 59.3181 113.236 56.7853 113.236C54.2524 113.236 51.6885 112.739 49.2645 111.744L20.9837 99.997V99.1268L49.4354 87.3486C54.2058 85.4374 59.4735 85.4374 64.2439 87.3641L92.8976 99.2356L93.5502 99.6396L64.4304 111.698ZM66.1863 83.3086C66.093 83.2775 65.9843 83.2309 65.9377 83.2153C61.1051 81.1332 57.3913 77.3573 55.4023 72.587L43.2665 43.2501L72.7126 55.4479C77.4675 57.4679 81.1968 61.1661 83.2013 65.8898C83.2479 66.0141 83.2635 66.0763 83.2946 66.1074L95.4304 95.4287L66.1863 83.3086ZM111.855 64.0407L99.5638 93.7194L87.3347 64.1806C85.3923 59.3636 85.4234 54.065 87.4124 49.2636L99.5638 19.9267L111.793 49.4345C113.689 54.1116 113.72 59.3015 111.855 64.0407ZM155.395 37.4542C155.115 38.3244 154.463 38.9926 153.608 39.3655L120.199 53.1948C119.951 53.2881 119.718 53.3191 119.469 53.3191C119.236 53.3191 119.003 53.2725 118.785 53.1793C118.319 52.9928 117.962 52.6354 117.775 52.1693L103.946 18.7613C103.588 17.9222 103.619 17.0055 104.008 16.1819C104.412 15.3428 105.127 14.7213 105.997 14.4727L138.349 4.528C138.442 4.48138 138.551 4.48138 138.613 4.48138C138.939 4.48138 139.234 4.66784 139.39 4.94754L155.224 34.8593C155.473 35.3099 155.597 35.8071 155.597 36.3199C155.597 36.7395 155.535 37.1124 155.395 37.4542Z" fill="white"/>
<path opacity="0.38" d="M156.701 33.879C157.245 34.889 157.323 36.0544 156.934 37.1265L123.386 43.5595H123.37L104.102 15.2482C104.6 14.2071 105.47 13.4457 106.557 13.1194L138.894 3.19027C139.376 3.03489 139.873 3.11258 140.277 3.3612C140.525 3.51658 140.727 3.73412 140.867 3.99828L156.701 33.879Z" fill="#FFFA87" fill-opacity="0.19"/>
<path d="M103.481 104.082L98.4618 146.626L107.614 146.657L112.633 104.113L103.481 104.082Z" fill="black"/>
<path d="M151.156 104.231L148.095 130.18C148.001 130.072 147.924 129.963 147.83 129.87C147.178 129.077 146.51 128.3 145.841 127.57L120.404 100.999L115.012 146.682L123.621 146.714L126.682 120.826C127.241 121.541 127.847 122.24 128.469 122.908L154.388 149.914L159.78 104.262L151.14 104.231H151.156Z" fill="black"/>
<path d="M201.618 115.734C200.639 112.767 198.961 110.312 196.615 108.416C194.843 106.955 192.668 105.899 190.166 105.277C187.695 104.671 183.515 104.36 177.409 104.329L167.06 104.298L162.041 146.858L174.208 146.889C179.289 146.905 182.987 146.625 185.504 146.035C188.053 145.429 190.43 144.388 192.543 142.958C195.325 141.047 197.594 138.607 199.256 135.686C200.903 132.796 201.96 129.455 202.411 125.741C202.846 122.012 202.582 118.656 201.618 115.734ZM192.979 125.648C192.683 128.057 192.062 130.185 191.114 131.988C190.197 133.728 188.938 135.22 187.369 136.385C186.25 137.224 184.96 137.815 183.515 138.172C182.008 138.545 179.708 138.732 176.694 138.716H172.156L175.249 112.456H178.978C182.365 112.487 184.852 112.689 186.359 113.062C187.773 113.435 188.985 114.041 189.917 114.88C191.192 116.061 192.108 117.552 192.621 119.308C193.134 121.095 193.258 123.24 192.979 125.648Z" fill="black"/>
<path d="M210.462 104.447L205.443 146.991L214.595 147.022L219.614 104.478L210.462 104.447Z" fill="black"/>
<path d="M243.13 101.411L215.641 147.048L225.384 147.079L231.46 136.715L246.502 136.761L250.029 147.156L259.803 147.188L243.13 101.411ZM235.951 129.007L240.41 121.394C240.597 121.021 240.799 120.648 240.985 120.244C241.094 120.663 241.203 121.067 241.327 121.44L243.969 129.038L235.951 129.007Z" fill="black"/>
<path d="M120.956 171.696C122.308 170.08 123.147 168.044 123.427 165.683C123.66 163.725 123.474 161.907 122.883 160.275C122.277 158.613 121.298 157.245 119.977 156.22C118.936 155.412 117.615 154.821 116.062 154.479C114.57 154.137 112.317 153.967 109.193 153.951L97.4771 153.92L92.458 196.465L104.236 196.511C108.37 196.527 111.307 196.294 113.171 195.812C115.129 195.299 116.838 194.413 118.253 193.17C119.589 192.036 120.692 190.653 121.531 189.037C122.355 187.452 122.883 185.743 123.085 183.987C123.443 181.05 122.945 178.564 121.624 176.591C120.816 175.394 119.76 174.477 118.486 173.84C119.433 173.25 120.257 172.535 120.956 171.696ZM113.762 183.568C113.653 184.469 113.358 185.308 112.892 186.038C112.441 186.753 111.882 187.312 111.136 187.747C110.561 188.105 109.753 188.369 108.727 188.524C107.593 188.68 105.853 188.773 103.537 188.757H102.372L103.63 178.176H106.847C108.137 178.191 109.178 178.253 109.908 178.393C110.607 178.517 111.229 178.719 111.711 178.968C112.503 179.403 113.047 179.994 113.404 180.755C113.762 181.548 113.886 182.48 113.762 183.568ZM114.135 166.522C113.948 168.153 113.327 169.256 112.255 169.878C111.415 170.375 109.628 170.966 105.899 170.95H104.485L105.573 161.658H107.002C110.949 161.674 112.55 162.28 113.187 162.792C114.042 163.461 114.352 164.719 114.135 166.522Z" fill="black"/>
<path d="M136.287 188.492L140.342 154.074L131.205 154.043L126.171 196.588L150.52 196.681L151.484 188.554L136.287 188.492Z" fill="black"/>
<path d="M198.569 167.09C197.715 164.402 196.285 161.963 194.296 159.803C192.307 157.705 189.93 156.073 187.242 154.97C184.538 153.867 181.585 153.308 178.431 153.292C175.277 153.277 172.169 153.82 169.201 154.908C166.249 155.996 163.483 157.612 160.996 159.694C158.51 161.807 156.506 164.231 155.03 166.904C153.553 169.577 152.621 172.467 152.264 175.481C151.906 178.511 152.155 181.401 152.994 184.074C153.849 186.731 155.278 189.155 157.267 191.253C159.225 193.335 161.587 194.967 164.322 196.101C167.057 197.235 170.025 197.81 173.179 197.826C176.287 197.826 179.363 197.282 182.331 196.179C185.299 195.075 188.065 193.459 190.567 191.377C193.053 189.279 195.073 186.871 196.549 184.198C198.041 181.526 198.973 178.635 199.331 175.637C199.673 172.653 199.424 169.778 198.569 167.09ZM189.883 175.605C189.666 177.47 189.091 179.257 188.189 180.935C187.288 182.613 186.061 184.136 184.584 185.441C183.077 186.762 181.414 187.772 179.643 188.456C177.872 189.14 176.038 189.481 174.173 189.481C172.262 189.466 170.475 189.124 168.859 188.425C167.243 187.726 165.829 186.7 164.664 185.379C163.483 184.058 162.628 182.536 162.131 180.873C161.618 179.195 161.478 177.392 161.696 175.512C161.929 173.617 162.488 171.783 163.389 170.105C164.291 168.411 165.503 166.904 166.994 165.614C168.486 164.293 170.133 163.283 171.92 162.6C173.707 161.916 175.572 161.574 177.452 161.59C179.348 161.59 181.119 161.947 182.751 162.646C184.367 163.361 185.765 164.371 186.915 165.676C188.081 166.997 188.935 168.535 189.448 170.229C189.961 171.923 190.116 173.725 189.883 175.605Z" fill="black"/>
<path d="M231.086 188.484C228.895 189.261 226.611 189.665 224.296 189.649C220.349 189.649 217.319 188.359 215.05 185.733C212.766 183.092 211.88 179.829 212.362 175.742C212.859 171.516 214.553 168.19 217.521 165.564C220.489 162.954 224.016 161.68 228.305 161.695C230.512 161.695 232.594 162.084 234.505 162.83C236.432 163.575 238.234 164.71 239.866 166.201L241.498 167.693L243.16 158.168L242.663 157.811C240.658 156.35 238.499 155.247 236.261 154.516C234.008 153.786 231.568 153.413 229.004 153.398C225.741 153.398 222.602 153.91 219.665 154.967C216.713 156.024 213.994 157.609 211.57 159.691C209.146 161.742 207.172 164.166 205.696 166.901C204.235 169.62 203.303 172.557 202.93 175.649C202.573 178.741 202.806 181.693 203.629 184.428C204.453 187.179 205.836 189.603 207.747 191.638C209.674 193.705 212.02 195.305 214.755 196.377C217.474 197.434 220.536 197.993 223.861 197.993C226.471 197.993 228.989 197.683 231.32 197.03C233.666 196.377 235.904 195.383 237.986 194.047L238.514 193.705L239.742 183.247L237.613 184.848C235.468 186.448 233.277 187.676 231.086 188.453V188.484Z" fill="black"/>
<path d="M263.327 173.594L283.232 154.559L271.764 154.528L256.707 169.259L258.448 154.482L249.295 154.451L244.276 196.995L253.429 197.026L255.604 178.629L268.222 197.089L280 197.12L263.327 173.594Z" fill="black"/>
<path d="M307.28 188.743C305.089 189.52 302.805 189.908 300.49 189.908C296.543 189.908 293.513 188.619 291.244 185.993C288.96 183.351 288.074 180.088 288.556 176.001C289.053 171.775 290.747 168.449 293.73 165.823C296.698 163.213 300.226 161.954 304.514 161.954C306.721 161.954 308.803 162.343 310.714 163.089C312.641 163.835 314.444 164.969 316.075 166.461L317.707 167.952L319.369 158.427L318.872 158.07C316.868 156.609 314.708 155.506 312.47 154.776C310.217 154.045 307.778 153.672 305.214 153.657C301.95 153.657 298.812 154.17 295.875 155.226C292.922 156.283 290.203 157.883 287.779 159.95C285.355 162.001 283.381 164.425 281.905 167.16C280.429 169.879 279.512 172.816 279.139 175.908C278.782 179 279 181.952 279.839 184.687C280.662 187.438 282.045 189.862 283.956 191.897C285.883 193.964 288.23 195.564 290.964 196.636C293.684 197.693 296.745 198.252 300.07 198.252C302.681 198.252 305.198 197.942 307.529 197.289C309.875 196.636 312.113 195.642 314.195 194.306L314.723 193.964L315.951 183.506L313.822 185.107C311.678 186.723 309.487 187.935 307.296 188.712L307.28 188.743Z" fill="black"/>
<path d="M352.856 154.79L351.1 169.645L332.888 169.583L334.628 154.728L325.492 154.697L320.457 197.242L329.609 197.273L331.925 177.71L350.136 177.772L347.837 197.335L356.989 197.366L362.008 154.821L352.856 154.79Z" fill="black"/>
<path d="M385.385 151.765L357.881 197.386L367.624 197.417L373.715 187.053L388.757 187.115L392.268 197.495L402.058 197.526L385.385 151.765ZM378.19 179.362L382.65 171.732C382.852 171.359 383.038 170.986 383.24 170.582C383.349 171.002 383.458 171.406 383.567 171.779L386.224 179.377H378.19V179.362Z" fill="black"/>
<path d="M408.119 154.971L403.1 197.531L412.237 197.547L417.272 155.002L408.119 154.971Z" fill="black"/>
<path d="M455.786 155.137L452.725 181.087C452.631 180.978 452.554 180.869 452.461 180.76C451.808 179.968 451.14 179.207 450.472 178.476L425.034 151.905L419.642 197.589L428.251 197.62L431.312 171.733C431.887 172.447 432.478 173.147 433.099 173.815L459.018 200.821L464.41 155.168L455.77 155.137H455.786Z" fill="black"/>
<path d="M141.051 203.896L130.407 225.122C129.909 226.117 129.474 227.018 129.101 227.81C128.868 226.847 128.635 225.884 128.371 224.92L121.316 200.198L108.979 224.438C108.932 224.532 108.839 224.734 108.683 225.013C108.233 225.946 107.798 226.894 107.362 227.872C107.145 226.987 106.896 225.977 106.601 224.874L100.883 203.772L91.6682 203.741L104.022 249.953L117.54 224.361C117.944 223.584 118.348 222.76 118.752 221.906C118.939 222.667 119.156 223.46 119.405 224.268L127.05 249.999L150.343 203.928L141.066 203.896H141.051Z" fill="black"/>
<path d="M176.857 211.844L177.79 204.028L152.088 203.935L147.069 246.479L172.771 246.573L173.718 238.446L157.185 238.384L158.459 227.647L174.993 227.693L175.941 219.675L159.392 219.629L160.324 211.782L176.857 211.844Z" fill="black"/>
<path d="M208.006 211.967L208.938 204.136L183.237 204.058L178.218 246.602L203.919 246.696L204.867 238.569L188.333 238.507L189.608 227.754L206.141 227.816L207.089 219.798L190.54 219.752L191.472 211.905L208.006 211.967Z" fill="black"/>
<path d="M228.398 223.31L248.304 204.275L236.82 204.244L221.763 218.974L223.503 204.197L214.367 204.166L209.332 246.711L218.484 246.742L220.66 228.344L233.277 246.788L245.071 246.835L228.398 223.31Z" fill="black"/>
<path d="M280.899 233.187L281.195 232.908C288.56 226.18 292.507 220.663 293.004 216.375C293.408 212.987 292.553 210.253 290.44 208.201C288.327 206.15 285.312 205.109 281.397 205.094C277.325 205.094 273.969 206.181 271.327 208.388C268.701 210.594 267.147 213.624 266.697 217.462L266.65 217.851H270.395C270.737 214.914 271.825 212.583 273.658 210.89C275.492 209.196 277.807 208.357 280.604 208.372C283.339 208.372 285.483 209.149 287.006 210.672C288.529 212.195 289.15 214.168 288.871 216.577C288.467 220.011 284.085 225.605 275.709 233.374C274.357 234.617 273.332 235.58 272.633 236.249L262.517 245.743L289.368 245.836L289.741 242.666L270.597 242.604L280.915 233.172L280.899 233.187Z" fill="black"/>
<path d="M325.454 210.81C323.418 207.097 320.233 205.248 315.882 205.232C311.531 205.216 307.879 207.05 304.958 210.764C302.037 214.462 300.187 219.574 299.426 226.1C298.649 232.58 299.302 237.692 301.337 241.406C303.388 245.12 306.558 246.984 310.847 247C315.26 247.015 318.927 245.197 321.818 241.561C324.708 237.91 326.557 232.797 327.334 226.194C328.111 219.636 327.474 214.509 325.454 210.81ZM323.542 226.116C322.859 231.896 321.476 236.278 319.409 239.262C317.342 242.245 314.654 243.737 311.344 243.721C308.159 243.721 305.859 242.152 304.43 239.044C302.984 235.936 302.596 231.648 303.249 226.162C303.901 220.615 305.3 216.295 307.444 213.172C309.604 210.049 312.246 208.495 315.384 208.495C318.725 208.511 321.087 210.018 322.47 213.048C323.853 216.047 324.211 220.413 323.542 226.116Z" fill="black"/>
<path d="M348.653 233.139C356.018 226.411 359.949 220.91 360.462 216.606C360.866 213.218 360.012 210.499 357.898 208.432C355.785 206.381 352.771 205.356 348.839 205.34C344.768 205.325 341.412 206.428 338.786 208.634C336.144 210.841 334.606 213.871 334.155 217.709L334.108 218.097H337.853C338.195 215.145 339.283 212.83 341.116 211.136C342.95 209.442 345.25 208.603 348.062 208.619C350.797 208.619 352.941 209.38 354.464 210.903C355.987 212.426 356.609 214.399 356.313 216.823C355.909 220.242 351.527 225.851 343.168 233.62C341.816 234.864 340.79 235.827 340.075 236.495L329.959 245.989L356.811 246.082L357.184 242.913L338.04 242.85L348.358 233.418L348.653 233.139Z" fill="black"/>
<path d="M393.765 215.932C394.138 212.84 393.315 210.322 391.31 208.38C389.321 206.453 386.509 205.474 382.919 205.459C379.516 205.459 376.657 206.313 374.311 208.038C371.964 209.763 370.442 212.125 369.773 215.139H373.86C374.357 213.104 375.367 211.503 376.89 210.369C378.397 209.235 380.293 208.675 382.531 208.691C384.986 208.691 386.882 209.39 388.218 210.788C389.554 212.171 390.083 214.005 389.819 216.274C389.539 218.558 388.591 220.329 386.944 221.619C385.297 222.893 383.137 223.53 380.464 223.515C380.278 223.515 380.045 223.499 379.78 223.484C379.516 223.484 379.128 223.437 378.631 223.406L378.211 226.871C378.382 226.871 378.584 226.871 378.801 226.855C379.019 226.855 379.345 226.84 379.796 226.84C382.748 226.855 384.955 227.632 386.447 229.155C387.938 230.678 388.513 232.791 388.202 235.495C387.892 238.152 386.82 240.234 384.986 241.726C383.168 243.233 380.806 243.979 377.885 243.963C375.072 243.948 372.959 243.264 371.576 241.912C370.193 240.56 369.571 238.587 369.711 236.008L365.593 235.961C365.469 239.581 366.433 242.363 368.468 244.305C370.504 246.248 373.518 247.226 377.496 247.242C381.552 247.258 384.908 246.185 387.565 244.072C390.207 241.943 391.745 239.084 392.18 235.51C392.46 233.04 392.025 230.942 390.844 229.171C389.679 227.399 387.876 226.11 385.437 225.27C387.798 224.602 389.71 223.452 391.17 221.821C392.631 220.189 393.501 218.231 393.765 215.932Z" fill="black"/>
<path d="M264.74 129.588L271.85 119.4H273.128V132H270.95V128.832L271.094 128.634V123.198L267.854 127.896H272.228L272.534 127.752H275.108V129.588H264.74ZM275.826 128.598V126.852H279.516V128.598H275.826ZM280.954 122.352V120.336L285.976 119.202V132H283.888V121.542L280.954 122.352ZM290.937 125.7C290.937 126.372 291.003 126.99 291.135 127.554C291.267 128.118 291.453 128.604 291.693 129.012C291.945 129.42 292.245 129.738 292.593 129.966C292.941 130.182 293.331 130.29 293.763 130.29C294.195 130.29 294.579 130.182 294.915 129.966C295.263 129.738 295.557 129.42 295.797 129.012C296.049 128.604 296.241 128.118 296.373 127.554C296.505 126.99 296.571 126.372 296.571 125.7C296.571 125.028 296.505 124.41 296.373 123.846C296.241 123.282 296.049 122.796 295.797 122.388C295.557 121.98 295.263 121.668 294.915 121.452C294.579 121.224 294.195 121.11 293.763 121.11C293.331 121.11 292.941 121.224 292.593 121.452C292.245 121.668 291.945 121.98 291.693 122.388C291.453 122.796 291.267 123.282 291.135 123.846C291.003 124.41 290.937 125.028 290.937 125.7ZM288.849 125.7C288.849 124.392 289.053 123.252 289.461 122.28C289.881 121.308 290.457 120.552 291.189 120.012C291.933 119.472 292.791 119.202 293.763 119.202C294.747 119.202 295.605 119.472 296.337 120.012C297.069 120.552 297.639 121.308 298.047 122.28C298.455 123.252 298.659 124.392 298.659 125.7C298.659 127.008 298.455 128.148 298.047 129.12C297.639 130.092 297.069 130.848 296.337 131.388C295.605 131.928 294.747 132.198 293.763 132.198C292.791 132.198 291.933 131.928 291.189 131.388C290.457 130.848 289.881 130.092 289.461 129.12C289.053 128.148 288.849 127.008 288.849 125.7ZM306.179 119.4H308.357V132H306.179V119.4ZM310.247 132H307.493V130.002H310.193C310.817 130.002 311.393 129.912 311.921 129.732C312.449 129.54 312.905 129.27 313.289 128.922C313.685 128.562 313.991 128.112 314.207 127.572C314.435 127.032 314.549 126.408 314.549 125.7C314.549 124.992 314.435 124.368 314.207 123.828C313.991 123.288 313.685 122.838 313.289 122.478C312.905 122.118 312.449 121.848 311.921 121.668C311.393 121.488 310.817 121.398 310.193 121.398H307.493V119.4H310.247C311.531 119.4 312.659 119.664 313.631 120.192C314.603 120.708 315.359 121.44 315.899 122.388C316.451 123.324 316.727 124.428 316.727 125.7C316.727 126.972 316.451 128.082 315.899 129.03C315.359 129.966 314.603 130.698 313.631 131.226C312.659 131.742 311.531 132 310.247 132ZM322.238 132.18C321.398 132.18 320.654 132 320.006 131.64C319.37 131.28 318.878 130.776 318.53 130.128C318.182 129.48 318.008 128.724 318.008 127.86C318.008 126.984 318.182 126.222 318.53 125.574C318.89 124.926 319.394 124.428 320.042 124.08C320.69 123.72 321.452 123.54 322.328 123.54C323.204 123.54 323.948 123.708 324.56 124.044C325.184 124.38 325.658 124.866 325.982 125.502C326.306 126.126 326.468 126.882 326.468 127.77C326.468 127.866 326.462 127.968 326.45 128.076C326.45 128.184 326.45 128.262 326.45 128.31H319.178V126.96H324.776L324.182 127.788C324.218 127.716 324.254 127.62 324.29 127.5C324.338 127.38 324.362 127.278 324.362 127.194C324.362 126.75 324.272 126.366 324.092 126.042C323.924 125.718 323.684 125.466 323.372 125.286C323.072 125.106 322.718 125.016 322.31 125.016C321.818 125.016 321.398 125.124 321.05 125.34C320.714 125.556 320.45 125.868 320.258 126.276C320.078 126.684 319.988 127.188 319.988 127.788C319.976 128.376 320.06 128.88 320.24 129.3C320.432 129.72 320.702 130.038 321.05 130.254C321.398 130.47 321.824 130.578 322.328 130.578C322.868 130.578 323.336 130.47 323.732 130.254C324.128 130.038 324.452 129.708 324.704 129.264L326.396 129.93C325.952 130.674 325.388 131.238 324.704 131.622C324.02 131.994 323.198 132.18 322.238 132.18ZM329.638 127.86C329.638 128.376 329.752 128.832 329.98 129.228C330.208 129.624 330.514 129.936 330.898 130.164C331.294 130.392 331.732 130.506 332.212 130.506C332.62 130.506 332.998 130.446 333.346 130.326C333.706 130.194 334.024 130.026 334.3 129.822C334.576 129.606 334.78 129.366 334.912 129.102V131.244C334.624 131.532 334.234 131.76 333.742 131.928C333.25 132.096 332.71 132.18 332.122 132.18C331.282 132.18 330.52 132 329.836 131.64C329.164 131.268 328.63 130.758 328.234 130.11C327.838 129.45 327.64 128.7 327.64 127.86C327.64 127.008 327.838 126.258 328.234 125.61C328.63 124.962 329.164 124.458 329.836 124.098C330.52 123.726 331.282 123.54 332.122 123.54C332.71 123.54 333.25 123.624 333.742 123.792C334.234 123.96 334.624 124.182 334.912 124.458V126.618C334.78 126.342 334.57 126.102 334.282 125.898C334.006 125.682 333.688 125.514 333.328 125.394C332.968 125.274 332.596 125.214 332.212 125.214C331.732 125.214 331.294 125.328 330.898 125.556C330.514 125.784 330.208 126.096 329.98 126.492C329.752 126.888 329.638 127.344 329.638 127.86ZM340.66 132.18C339.82 132.18 339.076 132 338.428 131.64C337.792 131.28 337.3 130.776 336.952 130.128C336.604 129.48 336.43 128.724 336.43 127.86C336.43 126.984 336.604 126.222 336.952 125.574C337.312 124.926 337.816 124.428 338.464 124.08C339.112 123.72 339.874 123.54 340.75 123.54C341.626 123.54 342.37 123.708 342.982 124.044C343.606 124.38 344.08 124.866 344.404 125.502C344.728 126.126 344.89 126.882 344.89 127.77C344.89 127.866 344.884 127.968 344.872 128.076C344.872 128.184 344.872 128.262 344.872 128.31H337.6V126.96H343.198L342.604 127.788C342.64 127.716 342.676 127.62 342.712 127.5C342.76 127.38 342.784 127.278 342.784 127.194C342.784 126.75 342.694 126.366 342.514 126.042C342.346 125.718 342.106 125.466 341.794 125.286C341.494 125.106 341.14 125.016 340.732 125.016C340.24 125.016 339.82 125.124 339.472 125.34C339.136 125.556 338.872 125.868 338.68 126.276C338.5 126.684 338.41 127.188 338.41 127.788C338.398 128.376 338.482 128.88 338.662 129.3C338.854 129.72 339.124 130.038 339.472 130.254C339.82 130.47 340.246 130.578 340.75 130.578C341.29 130.578 341.758 130.47 342.154 130.254C342.55 130.038 342.874 129.708 343.126 129.264L344.818 129.93C344.374 130.674 343.81 131.238 343.126 131.622C342.442 131.994 341.62 132.18 340.66 132.18ZM358.625 126.726V132H356.663V126.96C356.663 126.336 356.549 125.874 356.321 125.574C356.105 125.262 355.763 125.106 355.295 125.106C354.959 125.106 354.665 125.178 354.413 125.322C354.173 125.466 353.981 125.676 353.837 125.952C353.705 126.228 353.639 126.564 353.639 126.96V132H351.695V126.96C351.695 126.336 351.581 125.874 351.353 125.574C351.137 125.262 350.789 125.106 350.309 125.106C349.985 125.106 349.697 125.178 349.445 125.322C349.205 125.466 349.013 125.676 348.869 125.952C348.737 126.228 348.671 126.564 348.671 126.96V132H346.763V123.72H348.671V124.926C348.923 124.47 349.241 124.128 349.625 123.9C350.009 123.66 350.471 123.54 351.011 123.54C351.611 123.54 352.109 123.666 352.505 123.918C352.913 124.17 353.207 124.536 353.387 125.016C353.687 124.524 354.053 124.158 354.485 123.918C354.929 123.666 355.427 123.54 355.979 123.54C356.579 123.54 357.071 123.666 357.455 123.918C357.839 124.158 358.127 124.518 358.319 124.998C358.523 125.478 358.625 126.054 358.625 126.726ZM362.98 117.96V132H361.018V117.96H362.98ZM369.838 127.86C369.838 128.76 369.652 129.534 369.28 130.182C368.908 130.83 368.416 131.328 367.804 131.676C367.192 132.012 366.526 132.18 365.806 132.18C365.122 132.18 364.516 132.006 363.988 131.658C363.46 131.31 363.04 130.812 362.728 130.164C362.428 129.516 362.278 128.748 362.278 127.86C362.278 126.96 362.428 126.192 362.728 125.556C363.04 124.908 363.46 124.41 363.988 124.062C364.516 123.714 365.122 123.54 365.806 123.54C366.526 123.54 367.192 123.714 367.804 124.062C368.416 124.398 368.908 124.89 369.28 125.538C369.652 126.174 369.838 126.948 369.838 127.86ZM367.822 127.86C367.822 127.308 367.708 126.834 367.48 126.438C367.252 126.042 366.952 125.742 366.58 125.538C366.208 125.334 365.794 125.232 365.338 125.232C364.954 125.232 364.582 125.334 364.222 125.538C363.862 125.742 363.562 126.042 363.322 126.438C363.094 126.822 362.98 127.296 362.98 127.86C362.98 128.424 363.094 128.904 363.322 129.3C363.562 129.684 363.862 129.978 364.222 130.182C364.582 130.386 364.954 130.488 365.338 130.488C365.794 130.488 366.208 130.386 366.58 130.182C366.952 129.978 367.252 129.678 367.48 129.282C367.708 128.886 367.822 128.412 367.822 127.86ZM375.289 132.18C374.449 132.18 373.705 132 373.057 131.64C372.421 131.28 371.929 130.776 371.581 130.128C371.233 129.48 371.059 128.724 371.059 127.86C371.059 126.984 371.233 126.222 371.581 125.574C371.941 124.926 372.445 124.428 373.093 124.08C373.741 123.72 374.503 123.54 375.379 123.54C376.255 123.54 376.999 123.708 377.611 124.044C378.235 124.38 378.709 124.866 379.033 125.502C379.357 126.126 379.519 126.882 379.519 127.77C379.519 127.866 379.513 127.968 379.501 128.076C379.501 128.184 379.501 128.262 379.501 128.31H372.229V126.96H377.827L377.233 127.788C377.269 127.716 377.305 127.62 377.341 127.5C377.389 127.38 377.413 127.278 377.413 127.194C377.413 126.75 377.323 126.366 377.143 126.042C376.975 125.718 376.735 125.466 376.423 125.286C376.123 125.106 375.769 125.016 375.361 125.016C374.869 125.016 374.449 125.124 374.101 125.34C373.765 125.556 373.501 125.868 373.309 126.276C373.129 126.684 373.039 127.188 373.039 127.788C373.027 128.376 373.111 128.88 373.291 129.3C373.483 129.72 373.753 130.038 374.101 130.254C374.449 130.47 374.875 130.578 375.379 130.578C375.919 130.578 376.387 130.47 376.783 130.254C377.179 130.038 377.503 129.708 377.755 129.264L379.447 129.93C379.003 130.674 378.439 131.238 377.755 131.622C377.071 131.994 376.249 132.18 375.289 132.18ZM383.318 123.72V132H381.392V123.72H383.318ZM385.784 125.79C385.616 125.646 385.448 125.538 385.28 125.466C385.124 125.394 384.926 125.358 384.686 125.358C384.362 125.358 384.098 125.442 383.894 125.61C383.69 125.778 383.54 126.012 383.444 126.312C383.36 126.6 383.318 126.942 383.318 127.338L382.67 126.96C382.67 126.3 382.79 125.718 383.03 125.214C383.282 124.698 383.6 124.29 383.984 123.99C384.38 123.678 384.788 123.522 385.208 123.522C385.508 123.522 385.79 123.57 386.054 123.666C386.318 123.762 386.546 123.924 386.738 124.152L385.784 125.79ZM399.423 117.87H401.331V135.87H399.423V117.87ZM416.942 125.502V124.458H418.976C419.372 124.458 419.72 124.392 420.02 124.26C420.32 124.128 420.554 123.942 420.722 123.702C420.89 123.45 420.974 123.15 420.974 122.802C420.974 122.274 420.788 121.866 420.416 121.578C420.056 121.29 419.576 121.146 418.976 121.146H417.446V130.236H419.21C419.69 130.236 420.116 130.158 420.488 130.002C420.86 129.846 421.154 129.618 421.37 129.318C421.586 129.006 421.694 128.616 421.694 128.148C421.694 127.8 421.634 127.5 421.514 127.248C421.394 126.996 421.22 126.786 420.992 126.618C420.764 126.438 420.5 126.312 420.2 126.24C419.9 126.156 419.57 126.114 419.21 126.114H416.942V124.926H419.336C419.948 124.926 420.524 124.998 421.064 125.142C421.616 125.274 422.102 125.478 422.522 125.754C422.942 126.03 423.272 126.384 423.512 126.816C423.752 127.248 423.872 127.764 423.872 128.364C423.872 129.192 423.68 129.876 423.296 130.416C422.912 130.956 422.378 131.358 421.694 131.622C421.022 131.874 420.236 132 419.336 132H415.322V119.4H419.12C419.924 119.4 420.626 119.514 421.226 119.742C421.826 119.97 422.294 120.318 422.63 120.786C422.978 121.254 423.152 121.848 423.152 122.568C423.152 123.192 422.978 123.726 422.63 124.17C422.294 124.602 421.826 124.932 421.226 125.16C420.626 125.388 419.924 125.502 419.12 125.502H416.942ZM429.571 132.18C428.731 132.18 427.987 132 427.339 131.64C426.703 131.28 426.211 130.776 425.863 130.128C425.515 129.48 425.341 128.724 425.341 127.86C425.341 126.984 425.515 126.222 425.863 125.574C426.223 124.926 426.727 124.428 427.375 124.08C428.023 123.72 428.785 123.54 429.661 123.54C430.537 123.54 431.281 123.708 431.893 124.044C432.517 124.38 432.991 124.866 433.315 125.502C433.639 126.126 433.801 126.882 433.801 127.77C433.801 127.866 433.795 127.968 433.783 128.076C433.783 128.184 433.783 128.262 433.783 128.31H426.511V126.96H432.109L431.515 127.788C431.551 127.716 431.587 127.62 431.623 127.5C431.671 127.38 431.695 127.278 431.695 127.194C431.695 126.75 431.605 126.366 431.425 126.042C431.257 125.718 431.017 125.466 430.705 125.286C430.405 125.106 430.051 125.016 429.643 125.016C429.151 125.016 428.731 125.124 428.383 125.34C428.047 125.556 427.783 125.868 427.591 126.276C427.411 126.684 427.321 127.188 427.321 127.788C427.309 128.376 427.393 128.88 427.573 129.3C427.765 129.72 428.035 130.038 428.383 130.254C428.731 130.47 429.157 130.578 429.661 130.578C430.201 130.578 430.669 130.47 431.065 130.254C431.461 130.038 431.785 129.708 432.037 129.264L433.729 129.93C433.285 130.674 432.721 131.238 432.037 131.622C431.353 131.994 430.531 132.18 429.571 132.18ZM441.002 126.96C441.002 126.348 440.876 125.886 440.624 125.574C440.372 125.262 439.988 125.106 439.472 125.106C439.1 125.106 438.776 125.184 438.5 125.34C438.224 125.484 438.008 125.7 437.852 125.988C437.708 126.264 437.636 126.588 437.636 126.96V132H435.674V123.72H437.636V124.998C437.9 124.506 438.236 124.14 438.644 123.9C439.064 123.66 439.556 123.54 440.12 123.54C441.056 123.54 441.77 123.828 442.262 124.404C442.754 124.968 443 125.742 443 126.726V132H441.002V126.96ZM445.014 132.558H446.958C446.97 132.93 447.072 133.26 447.264 133.548C447.456 133.848 447.726 134.082 448.074 134.25C448.422 134.43 448.83 134.52 449.298 134.52C449.694 134.52 450.078 134.424 450.45 134.232C450.822 134.04 451.122 133.746 451.35 133.35C451.59 132.954 451.71 132.444 451.71 131.82V123.72H453.618V131.82C453.618 132.816 453.414 133.638 453.006 134.286C452.61 134.934 452.088 135.414 451.44 135.726C450.792 136.05 450.09 136.212 449.334 136.212C448.446 136.212 447.684 136.056 447.048 135.744C446.412 135.444 445.92 135.018 445.572 134.466C445.224 133.914 445.038 133.278 445.014 132.558ZM444.852 127.806C444.852 126.894 445.038 126.126 445.41 125.502C445.782 124.866 446.274 124.38 446.886 124.044C447.51 123.708 448.176 123.54 448.884 123.54C449.58 123.54 450.186 123.714 450.702 124.062C451.23 124.398 451.644 124.884 451.944 125.52C452.256 126.144 452.412 126.906 452.412 127.806C452.412 128.694 452.256 129.462 451.944 130.11C451.644 130.746 451.23 131.238 450.702 131.586C450.186 131.922 449.58 132.09 448.884 132.09C448.176 132.09 447.51 131.922 446.886 131.586C446.274 131.25 445.782 130.764 445.41 130.128C445.038 129.492 444.852 128.718 444.852 127.806ZM446.868 127.806C446.868 128.358 446.982 128.832 447.21 129.228C447.438 129.612 447.738 129.906 448.11 130.11C448.494 130.302 448.908 130.398 449.352 130.398C449.736 130.398 450.108 130.302 450.468 130.11C450.828 129.906 451.122 129.612 451.35 129.228C451.59 128.844 451.71 128.37 451.71 127.806C451.71 127.386 451.638 127.02 451.494 126.708C451.362 126.384 451.182 126.114 450.954 125.898C450.726 125.67 450.474 125.502 450.198 125.394C449.922 125.286 449.64 125.232 449.352 125.232C448.908 125.232 448.494 125.334 448.11 125.538C447.738 125.73 447.438 126.018 447.21 126.402C446.982 126.786 446.868 127.254 446.868 127.806ZM457.253 129.426C457.253 129.702 457.319 129.942 457.451 130.146C457.583 130.338 457.763 130.482 457.991 130.578C458.231 130.674 458.501 130.722 458.801 130.722C459.197 130.722 459.551 130.644 459.863 130.488C460.187 130.32 460.445 130.086 460.637 129.786C460.829 129.486 460.925 129.126 460.925 128.706L461.213 129.786C461.213 130.314 461.057 130.758 460.745 131.118C460.445 131.478 460.061 131.748 459.593 131.928C459.137 132.096 458.669 132.18 458.189 132.18C457.673 132.18 457.193 132.078 456.749 131.874C456.305 131.67 455.951 131.37 455.687 130.974C455.423 130.578 455.291 130.098 455.291 129.534C455.291 128.73 455.573 128.094 456.137 127.626C456.701 127.146 457.499 126.906 458.531 126.906C459.083 126.906 459.557 126.966 459.953 127.086C460.361 127.206 460.697 127.35 460.961 127.518C461.225 127.674 461.411 127.818 461.519 127.95V128.94C461.147 128.676 460.751 128.484 460.331 128.364C459.911 128.244 459.467 128.184 458.999 128.184C458.591 128.184 458.261 128.238 458.009 128.346C457.757 128.442 457.565 128.58 457.433 128.76C457.313 128.94 457.253 129.162 457.253 129.426ZM456.641 125.88L455.849 124.512C456.233 124.284 456.719 124.062 457.307 123.846C457.895 123.63 458.579 123.522 459.359 123.522C460.031 123.522 460.631 123.624 461.159 123.828C461.687 124.02 462.095 124.308 462.383 124.692C462.683 125.076 462.833 125.544 462.833 126.096V132H460.925V126.474C460.925 126.21 460.883 125.994 460.799 125.826C460.715 125.658 460.589 125.52 460.421 125.412C460.265 125.304 460.079 125.226 459.863 125.178C459.647 125.13 459.413 125.106 459.161 125.106C458.777 125.106 458.411 125.154 458.063 125.25C457.727 125.334 457.439 125.442 457.199 125.574C456.959 125.694 456.773 125.796 456.641 125.88ZM465.099 117.96H467.061V132H465.099V117.96ZM471.527 128.76C471.527 129.348 471.653 129.804 471.905 130.128C472.157 130.452 472.547 130.614 473.075 130.614C473.435 130.614 473.753 130.536 474.029 130.38C474.305 130.224 474.521 130.008 474.677 129.732C474.833 129.456 474.911 129.132 474.911 128.76V123.72H476.855V132H474.911V130.722C474.647 131.202 474.305 131.568 473.885 131.82C473.477 132.06 472.985 132.18 472.409 132.18C471.485 132.18 470.771 131.892 470.267 131.316C469.775 130.74 469.529 129.96 469.529 128.976V123.72H471.527V128.76ZM481.264 123.72V132H479.338V123.72H481.264ZM483.73 125.79C483.562 125.646 483.394 125.538 483.226 125.466C483.07 125.394 482.872 125.358 482.632 125.358C482.308 125.358 482.044 125.442 481.84 125.61C481.636 125.778 481.486 126.012 481.39 126.312C481.306 126.6 481.264 126.942 481.264 127.338L480.616 126.96C480.616 126.3 480.736 125.718 480.976 125.214C481.228 124.698 481.546 124.29 481.93 123.99C482.326 123.678 482.734 123.522 483.154 123.522C483.454 123.522 483.736 123.57 484 123.666C484.264 123.762 484.492 123.924 484.684 124.152L483.73 125.79ZM488.015 128.76C488.015 129.348 488.141 129.804 488.393 130.128C488.645 130.452 489.035 130.614 489.563 130.614C489.923 130.614 490.241 130.536 490.517 130.38C490.793 130.224 491.009 130.008 491.165 129.732C491.321 129.456 491.399 129.132 491.399 128.76V123.72H493.343V132H491.399V130.722C491.135 131.202 490.793 131.568 490.373 131.82C489.965 132.06 489.473 132.18 488.897 132.18C487.973 132.18 487.259 131.892 486.755 131.316C486.263 130.74 486.017 129.96 486.017 128.976V123.72H488.015V128.76Z" fill="black"/>
<defs>
<linearGradient id="paint0_linear_101_281" x1="119.846" y1="-11.9656" x2="24.269" y2="153.568" gradientUnits="userSpaceOnUse">
<stop offset="0.1" stop-color="#FFF42F"/>
<stop offset="0.3125" stop-color="#FFA232"/>
<stop offset="0.46875" stop-color="#F450B2"/>
<stop offset="0.71" stop-color="#3FCBFF"/>
<stop offset="0.96" stop-color="#D0D81D"/>
</linearGradient>
</defs>
</svg>
